<svg xmlns="http://www.w3.org/2000/svg" version="1.1" xmlns:xlink="http://www.w3.org/1999/xlink" xmlns:svgjs="http://svgjs.com/svgjs" width="1440" height="560" preserveAspectRatio="none" viewBox="0 0 1440 560"><g mask="url(&quot;#SvgjsMask1012&quot;)" fill="none"><rect width="1440" height="560" x="0" y="0" fill="#0e2a47"></rect><path d="M0 99.44L10 167.31L20 175.04L30 156.1L40 206.33L50 218.16L60 239.59L70 227.15L80 177.76L90 227.18L100 174.96L110 217.67L120 218.19L130 282.57L140 274.37L150 270.31L160 235.7L170 224.26L180 201.28L190 232.81L200 267.87L210 304.77L220 292.45L230 359.8L240 352.32L250 330L260 355.1L270 383.38L280 358.52L290 394.56L300 431.46L310 378.94L320 428.84L330 361.36L340 410.2L350 411.82L360 350.69L370 341.76L380 306.45L390 354.96L400 327.1L410 274.02L420 327.07L430 286.56L440 243.64L450 179.93L460 230.94L470 182.61L480 134.43L490 106.38L500 97.16L510 58.63L520 42.29L530 97.69L540 156.41L550 215.08L560 269.16L570 317.61L580 313.23L590 371.03L600 351L610 352.41L620 345.47L630 316.37L640 247.08L650 216.53L660 160.07L670 211.55L680 200.64L690 246.03L700 207.04L710 274.78L720 330.2L730 362.24L740 390.07L750 414.75L760 425.16L770 402.02L780 456.78L790 443.88L800 485.39L810 431.79L820 437.8L830 394.17L840 414.74L850 410.16L860 419.85L870 426L880 386.8L890 411.5L900 463.56L910 439.92L920 385.61L930 362.07L940 427.89L950 494.89L960 559.24L970 546.1L980 484.17L990 491.16L1000 474.93L1010 456.83L1020 427.26L1030 496.3L1040 427.51L1050 455.92L1060 497.54L1070 473.81L1080 409.82L1090 374.28L1100 339.17L1110 363.09L1120 423.08L1130 475.92L1140 419.91L1150 466.54L1160 431.36L1170 439.42L1180 471.99L1190 452.62L1200 416.94L1210 430.67L1220 404.65L1230 418.17L1240 386.68L1250 320.85L1260 333.43L1270 363.67L1280 371.52L1290 345.67L1300 403.76L1310 469.42L1320 403.94L1330 462.9L1340 451.2L1350 493.95L1360 438.86L1370 445.35L1380 456.66L1390 500.83L1400 544.98L1410 529.51L1420 471.5L1430 478.46L1440 454.93" stroke="#224b75" stroke-width="2"></path><path d="M0 99.44L10 167.31L20 175.04L30 156.1L40 206.33L50 218.16L60 239.59L70 227.15L80 177.76L90 227.18L100 174.96L110 217.67L120 218.19L130 282.57L140 274.37L150 270.31L160 235.7L170 224.26L180 201.28L190 232.81L200 267.87L210 304.77L220 292.45L230 359.8L240 352.32L250 330L260 355.1L270 383.38L280 358.52L290 394.56L300 431.46L310 378.94L320 428.84L330 361.36L340 410.2L350 411.82L360 350.69L370 341.76L380 306.45L390 354.96L400 327.1L410 274.02L420 327.07L430 286.56L440 243.64L450 179.93L460 230.94L470 182.61L480 134.43L490 106.38L500 97.16L510 58.63L520 42.29L530 97.69L540 156.41L550 215.08L560 269.16L570 317.61L580 313.23L590 371.03L600 351L610 352.41L620 345.47L630 316.37L640 247.08L650 216.53L660 160.07L670 211.55L680 200.64L690 246.03L700 207.04L710 274.78L720 330.2L730 362.24L740 390.07L750 414.75L760 425.16L770 402.02L780 456.78L790 443.88L800 485.39L810 431.79L820 437.8L830 394.17L840 414.74L850 410.16L860 419.85L870 426L880 386.8L890 411.5L900 463.56L910 439.92L920 385.61L930 362.07L940 427.89L950 494.89L960 559.24L970 546.1L980 484.17L990 491.16L1000 474.93L1010 456.83L1020 427.26L1030 496.3L1040 427.51L1050 455.92L1060 497.54L1070 473.81L1080 409.82L1090 374.28L1100 339.17L1110 363.09L1120 423.08L1130 475.92L1140 419.91L1150 466.54L1160 431.36L1170 439.42L1180 471.99L1190 452.62L1200 416.94L1210 430.67L1220 404.65L1230 418.17L1240 386.68L1250 320.85L1260 333.43L1270 363.67L1280 371.52L1290 345.67L1300 403.76L1310 469.42L1320 403.94L1330 462.9L1340 451.2L1350 493.95L1360 438.86L1370 445.35L1380 456.66L1390 500.83L1400 544.98L1410 529.51L1420 471.5L1430 478.46L1440 454.93L1440 560L0 560z" fill="url(#SvgjsLinearGradient1013)"></path></g><defs><mask id="SvgjsMask1012"><rect width="1440" height="560" fill="#ffffff"></rect></mask><linearGradient x1="50%" y1="0%" x2="50%" y2="100%" id="SvgjsLinearGradient1013"><stop stop-opacity="0.65" stop-color="#224b75" offset="0"></stop><stop stop-opacity="0" stop-color="#508dcc" offset="0.8"></stop></linearGradient></defs></svg>